# xmcd CD database file generated by Grip 3.3.1
# 
# Track frame offsets:
#       150
#       24690
#       53778
#       75364
#       100924
#       126221
#       150249
#       169996
#       192056
#       213310
#       235842
#       255190
# 
# Disc length: 3617 seconds
# 
# Revision: 1
# Processed by: cddbd v1.5.2PL0 Copyright (c) Steve Scherf et al.
# Submitted via: Grip 3.3.1
# 
DISCID=8b0e1f0c
DTITLE=Silent Force - Walk The Earth
DYEAR=2007
DGENRE=Heavy Metal
TTITLE0=Man and Machine
TTITLE1=Walk The Earth
TTITLE2=Point Of No Return
TTITLE3=In Front Of The Dark
TTITLE4=The King Of Fools
TTITLE5=The Child Within
TTITLE6=Goodbye My Ghost
TTITLE7=Save Me From Myself
TTITLE8=My Independence Day
TTITLE9=Blind Leading The Blind
TTITLE10=Running Through The Fire
TTITLE11=Picture Of A Shadow
EXTD=
EXTT0=
EXTT1=
EXTT2=
EXTT3=
EXTT4=
EXTT5=
EXTT6=
EXTT7=
EXTT8=
EXTT9=
EXTT10=
EXTT11=
PLAYORDER=
